<?xml version="1.0" encoding="UTF-8"?>
<svg id="Layer_2" data-name="Layer 2" xmlns="http://www.w3.org/2000/svg" viewBox="0 0 130.8 100.47">
  <defs>
    <style>
      .cls-1 {
        fill: #143352;
      }

      .cls-1, .cls-2, .cls-3 {
        stroke-width: 0px;
      }

      .cls-2 {
        fill: #fff;
      }

      .cls-3 {
        fill: #0072f4;
      }
    </style>
  </defs>
  <g id="Layer_1-2" data-name="Layer 1">
    <g>
      <g>
        <path class="cls-1" d="m7.36,68.8H0v-4.34h19.74v4.34h-7.36v19.46h-5.03v-19.46Z"/>
        <path class="cls-1" d="m24.67,64.47h18.7v4.27h-13.67v5.24h12.14v4.27h-12.14v5.76h13.88v4.27h-18.91v-23.8Z"/>
        <path class="cls-1" d="m48.5,64.47h4.89l9.16,12.94c.28.39.74,1.17,1.39,2.32l.17-.1-.1-2.01v-13.15h4.89v23.8h-4.89l-9.19-13.05c-.44-.62-.89-1.39-1.35-2.29l-.17.1c.07,1,.1,1.69.1,2.08v13.15h-4.89v-23.8Z"/>
        <path class="cls-1" d="m73.34,76.37c0-4.12,1.01-7.2,3.02-9.25,2.01-2.05,4.85-3.07,8.5-3.07,2.01,0,3.82.34,5.43,1.02,1.61.68,2.88,1.72,3.82,3.12.94,1.4,1.41,3.11,1.41,5.12h-5.17c0-1.55-.5-2.77-1.49-3.66-.99-.89-2.29-1.34-3.89-1.34-2.17,0-3.79.65-4.86,1.94-1.06,1.3-1.6,3.16-1.6,5.59v1.04c0,5.02,2.15,7.53,6.45,7.53,1.69,0,3.04-.44,4.04-1.32,1.01-.88,1.51-2.09,1.51-3.64h5c0,2.04-.46,3.74-1.39,5.12-.93,1.38-2.19,2.41-3.78,3.09-1.6.68-3.42,1.02-5.48,1.02-7.68,0-11.52-4.11-11.52-12.32Z"/>
        <path class="cls-1" d="m100.44,64.47h5.03v9.44h10.34v-9.44h5.03v23.8h-5.03v-10.03h-10.34v10.03h-5.03v-23.8Z"/>
        <path class="cls-1" d="m125.77,64.47h5.03v23.8h-5.03v-23.8Z"/>
      </g>
      <g>
        <g>
          <path class="cls-3" d="m92.63,4.31l-9.68,16.41h-34.78l-9.99-16.38c-.79-1.29.14-2.94,1.65-2.94h51.14c1.5,0,2.42,1.63,1.66,2.91Z"/>
          <path class="cls-1" d="m82.95,20.72l-15.47,26.21c-.74,1.26-2.55,1.27-3.31.02l-16-26.23h34.78Z"/>
          <g>
            <rect class="cls-2" x="54.5" y="9.37" width="21.74" height="4.83"/>
            <polygon class="cls-2" points="62.96 14.2 67.79 14.2 67.79 35.93 62.96 27.72 62.96 14.2"/>
          </g>
        </g>
        <path class="cls-2" d="m90.97,1.39c1.5,0,2.42,1.63,1.66,2.91l-9.68,16.41-15.47,26.21c-.37.63-1.02.95-1.66.95s-1.27-.31-1.65-.93l-16-26.23-9.99-16.38c-.79-1.29.14-2.94,1.65-2.94h51.14m0-1.39h-51.14c-1.22,0-2.3.63-2.9,1.7-.6,1.06-.57,2.32.06,3.36l9.99,16.38,16,26.23c.61,1,1.67,1.59,2.84,1.59s2.26-.61,2.87-1.64l15.47-26.21,9.68-16.41c.61-1.04.62-2.29.02-3.34-.6-1.05-1.68-1.68-2.89-1.68h0Z"/>
      </g>
      <g>
        <path class="cls-1" d="m14.13,100.41v-3.13h-1.22v-.43h2.94v.43h-1.23v3.13h-.49Z"/>
        <path class="cls-1" d="m16.41,100.41v-3.56h.49v1.53h1.94v-1.53h.5v3.56h-.5v-1.6h-1.94v1.6h-.49Z"/>
        <path class="cls-1" d="m20.23,100.41v-3.56h.49v3.56h-.49Z"/>
        <path class="cls-1" d="m21.61,100.41v-3.56h1.87c.24,0,.44.04.6.13.16.09.28.21.36.37.08.16.12.34.12.54,0,.25-.06.46-.17.63-.11.18-.26.3-.46.38l.75,1.5h-.54l-.7-1.42h-1.35v1.42h-.49Zm.49-1.84h1.33c.2,0,.35-.06.46-.18.11-.12.17-.29.17-.5,0-.13-.02-.24-.07-.33s-.12-.16-.21-.21c-.09-.05-.21-.08-.35-.08h-1.33v1.3Z"/>
        <path class="cls-1" d="m25.38,100.41v-3.56h1.33c.37,0,.69.06.95.19.26.12.46.32.6.58.14.26.21.6.21,1.01s-.07.74-.21,1.01c-.14.26-.34.46-.6.58-.26.13-.58.19-.95.19h-1.33Zm.49-.43h.82c.2,0,.37-.03.53-.08.16-.05.29-.13.4-.23.11-.1.19-.24.25-.4s.09-.36.09-.59v-.1c0-.23-.03-.43-.09-.6s-.14-.3-.25-.4c-.11-.1-.24-.18-.4-.23-.16-.05-.33-.08-.53-.08h-.82v2.71Z"/>
        <path class="cls-1" d="m28.95,99.24v-.46h1.31v.46h-1.31Z"/>
        <path class="cls-1" d="m30.92,100.41v-3.56h1.76c.25,0,.45.05.61.14.16.09.28.22.37.38.08.16.12.35.12.57s-.04.41-.13.58-.22.3-.38.39c-.16.09-.36.14-.59.14h-1.26v1.36h-.49Zm.49-1.79h1.23c.19,0,.35-.06.46-.18.12-.12.17-.29.17-.5,0-.14-.02-.26-.07-.36-.05-.1-.12-.17-.21-.23-.09-.05-.21-.08-.35-.08h-1.23v1.34Z"/>
        <path class="cls-1" d="m33.7,100.41l1.41-3.56h.65l1.41,3.56h-.53l-.35-.88h-1.73l-.34.88h-.51Zm1.01-1.3h1.41l-.43-1.12s-.03-.07-.05-.13c-.02-.06-.04-.12-.07-.18-.02-.07-.05-.14-.07-.21-.02-.07-.05-.14-.07-.19h-.03c-.02.07-.05.15-.08.24-.03.09-.06.18-.09.26-.03.08-.06.16-.08.22l-.44,1.12Z"/>
        <path class="cls-1" d="m37.65,100.41v-3.56h1.87c.24,0,.44.04.6.13.16.09.28.21.36.37.08.16.12.34.12.54,0,.25-.06.46-.17.63-.11.18-.26.3-.46.38l.75,1.5h-.54l-.7-1.42h-1.35v1.42h-.49Zm.49-1.84h1.33c.2,0,.35-.06.46-.18.11-.12.17-.29.17-.5,0-.13-.02-.24-.07-.33s-.12-.16-.21-.21c-.09-.05-.21-.08-.35-.08h-1.33v1.3Z"/>
        <path class="cls-1" d="m42.16,100.41v-3.13h-1.22v-.43h2.94v.43h-1.23v3.13h-.49Z"/>
        <path class="cls-1" d="m45.34,100.41v-1.48l-1.4-2.08h.57l1.08,1.64h.03l1.08-1.64h.54l-1.4,2.08v1.48h-.5Z"/>
        <path class="cls-1" d="m50.1,100.47c-.36,0-.67-.07-.92-.2-.25-.13-.45-.34-.58-.61-.13-.27-.2-.62-.2-1.04,0-.62.15-1.08.45-1.39.3-.3.72-.46,1.26-.46.3,0,.57.05.81.15.24.1.42.25.55.45.13.2.2.45.2.75h-.5c0-.21-.04-.38-.13-.51-.09-.14-.21-.24-.37-.3s-.35-.1-.56-.1c-.25,0-.46.05-.64.15-.18.1-.32.25-.41.45-.09.2-.14.46-.14.78v.11c0,.31.05.57.14.77s.23.34.41.44c.18.09.39.14.65.14.22,0,.41-.03.57-.1.16-.07.29-.17.37-.3s.13-.31.13-.52h.48c0,.31-.07.56-.2.76-.14.2-.32.34-.56.44-.24.1-.5.15-.8.15Z"/>
        <path class="cls-1" d="m53.34,100.41v-1.48l-1.4-2.08h.57l1.08,1.64h.03l1.08-1.64h.54l-1.4,2.08v1.48h-.5Z"/>
        <path class="cls-1" d="m55.73,100.41v-3.56h1.84c.2,0,.38.04.53.11.15.07.26.17.34.3s.12.28.12.46c0,.13-.02.26-.07.37-.05.11-.12.21-.2.29-.09.08-.19.13-.3.17v.02c.12.03.24.08.34.15s.18.17.24.29c.06.12.09.27.09.44,0,.23-.05.42-.15.56-.1.14-.23.25-.39.31-.16.07-.35.1-.56.1h-1.84Zm.49-2.03h1.25c.12,0,.22-.02.31-.07.09-.05.15-.11.2-.2s.08-.18.08-.29c0-.19-.05-.32-.15-.41s-.23-.13-.4-.13h-1.29v1.1Zm0,1.61h1.34c.18,0,.32-.05.43-.14.11-.09.17-.24.17-.46,0-.13-.02-.24-.07-.33-.05-.09-.12-.15-.21-.2-.09-.04-.21-.06-.35-.06h-1.3v1.19Z"/>
        <path class="cls-1" d="m59.35,100.41v-3.56h2.74v.43h-2.25v1.1h2.02v.43h-2.02v1.18h2.28v.43h-2.77Z"/>
        <path class="cls-1" d="m62.86,100.41v-3.56h1.87c.24,0,.44.04.6.13.16.09.28.21.36.37.08.16.12.34.12.54,0,.25-.06.46-.17.63-.11.18-.26.3-.46.38l.75,1.5h-.54l-.7-1.42h-1.35v1.42h-.49Zm.49-1.84h1.33c.2,0,.35-.06.46-.18.11-.12.17-.29.17-.5,0-.13-.02-.24-.07-.33s-.12-.16-.21-.21c-.09-.05-.21-.08-.35-.08h-1.33v1.3Z"/>
        <path class="cls-1" d="m67.72,100.41v-3.56h1.87c.24,0,.44.04.6.13.16.09.28.21.36.37.08.16.12.34.12.54,0,.25-.06.46-.17.63-.11.18-.26.3-.46.38l.75,1.5h-.54l-.7-1.42h-1.35v1.42h-.49Zm.49-1.84h1.33c.2,0,.35-.06.46-.18.11-.12.17-.29.17-.5,0-.13-.02-.24-.07-.33s-.12-.16-.21-.21c-.09-.05-.21-.08-.35-.08h-1.33v1.3Z"/>
        <path class="cls-1" d="m71.49,100.41v-3.56h.49v3.56h-.49Z"/>
        <path class="cls-1" d="m74.18,100.47c-.19,0-.38-.02-.56-.06-.18-.04-.34-.1-.47-.18-.14-.08-.25-.19-.33-.33-.08-.13-.12-.3-.12-.5,0-.02,0-.03,0-.05s0-.03,0-.05h.5s0,.03,0,.05c0,.02,0,.04,0,.06,0,.14.04.26.12.35s.2.17.35.22c.15.05.31.07.5.07.08,0,.17,0,.26-.02.09-.01.18-.03.26-.05.08-.03.16-.06.23-.1.07-.04.12-.1.16-.16s.06-.14.06-.24c0-.12-.03-.22-.1-.29-.07-.08-.16-.14-.27-.19s-.24-.1-.38-.14c-.14-.04-.28-.08-.43-.12-.15-.04-.29-.08-.43-.13s-.27-.11-.38-.19c-.11-.07-.2-.17-.27-.28-.07-.11-.1-.25-.1-.4,0-.15.03-.28.09-.4.06-.12.15-.22.27-.3.12-.08.27-.14.44-.19s.38-.06.61-.06c.19,0,.36.02.52.06.16.04.3.1.43.18.12.08.22.18.29.31.07.12.1.28.1.45v.06h-.49v-.08c0-.12-.04-.22-.11-.3-.07-.08-.17-.15-.3-.19-.13-.05-.27-.07-.43-.07-.21,0-.38.02-.52.06-.14.04-.24.1-.31.17-.07.07-.1.16-.1.25,0,.11.03.2.1.27s.16.13.27.18c.11.05.24.09.38.13.14.04.29.08.43.12.15.04.29.08.43.13.14.05.27.11.38.19.11.07.2.17.27.28.07.11.1.25.1.41,0,.25-.06.46-.19.61s-.3.27-.51.34-.47.11-.76.11Z"/>
        <path class="cls-1" d="m76.37,100.41v-3.56h.49v1.88l1.81-1.88h.61l-1.35,1.42,1.4,2.14h-.59l-1.16-1.78-.73.68v1.1h-.49Z"/>
        <path class="cls-1" d="m80.7,100.41v-3.56h.76l.81,2.31c.02.06.04.13.06.2.02.07.04.14.06.21.02.07.03.12.04.17h.04c.01-.05.02-.11.04-.18s.04-.14.06-.21c.02-.07.04-.14.06-.2l.81-2.31h.76v3.56h-.49v-2.09c0-.11,0-.22,0-.35,0-.13,0-.24.01-.35,0-.11,0-.18,0-.23h-.04s-.03.11-.05.19c-.02.08-.05.17-.08.25-.03.09-.05.17-.07.24l-.84,2.33h-.43l-.84-2.33c-.02-.06-.04-.13-.06-.2-.02-.08-.04-.16-.07-.24-.02-.08-.04-.16-.06-.23h-.04c0,.08,0,.17,0,.28,0,.11,0,.22,0,.34,0,.11,0,.21,0,.3v2.09h-.48Z"/>
        <path class="cls-1" d="m84.68,100.41l1.41-3.56h.65l1.41,3.56h-.53l-.35-.88h-1.73l-.34.88h-.51Zm1.01-1.3h1.41l-.43-1.12s-.03-.07-.05-.13c-.02-.06-.04-.12-.07-.18-.02-.07-.05-.14-.07-.21-.02-.07-.05-.14-.07-.19h-.03c-.02.07-.05.15-.08.24-.03.09-.06.18-.09.26-.03.08-.06.16-.08.22l-.44,1.12Z"/>
        <path class="cls-1" d="m88.63,100.41v-3.56h.48l1.73,2.35s.04.05.07.09c.03.04.06.08.08.12.03.04.05.08.07.11h.02v-2.67h.48v3.56h-.45l-1.75-2.39s-.06-.09-.11-.16c-.05-.07-.09-.12-.12-.17h-.03v2.71h-.48Z"/>
        <path class="cls-1" d="m92.04,100.41l1.41-3.56h.65l1.41,3.56h-.53l-.35-.88h-1.73l-.34.88h-.51Zm1.01-1.3h1.41l-.43-1.12s-.03-.07-.05-.13c-.02-.06-.04-.12-.07-.18-.02-.07-.05-.14-.07-.21-.02-.07-.05-.14-.07-.19h-.03c-.02.07-.05.15-.08.24-.03.09-.06.18-.09.26-.03.08-.06.16-.08.22l-.44,1.12Z"/>
        <path class="cls-1" d="m97.52,100.47c-.57,0-1.01-.15-1.31-.45-.3-.3-.45-.76-.45-1.39,0-.41.07-.75.21-1.02s.34-.48.61-.61c.27-.14.6-.2.99-.2.24,0,.46.03.66.08.2.05.37.13.51.24.14.11.25.24.33.4.08.16.12.35.12.57h-.5c0-.15-.03-.28-.08-.39s-.13-.2-.24-.27-.22-.12-.36-.15-.28-.04-.43-.04c-.21,0-.39.03-.56.08-.16.05-.3.13-.41.24-.11.11-.2.25-.25.43-.06.17-.09.38-.09.62v.11c0,.32.05.58.15.78s.24.35.43.44c.19.09.41.14.67.14s.49-.04.66-.11c.17-.07.3-.19.39-.34s.13-.34.13-.58v-.06h-1.26v-.42h1.75v1.87h-.37l-.05-.45c-.09.12-.2.22-.33.3-.13.08-.27.13-.42.17-.15.03-.32.05-.49.05Z"/>
        <path class="cls-1" d="m100.05,100.41v-3.56h2.74v.43h-2.25v1.1h2.02v.43h-2.02v1.18h2.28v.43h-2.77Z"/>
        <path class="cls-1" d="m103.56,100.41v-3.56h.76l.81,2.31c.02.06.04.13.06.2.02.07.04.14.06.21.02.07.03.12.04.17h.04c.01-.05.02-.11.04-.18s.04-.14.06-.21c.02-.07.04-.14.06-.2l.81-2.31h.76v3.56h-.49v-2.09c0-.11,0-.22,0-.35,0-.13,0-.24.01-.35,0-.11,0-.18,0-.23h-.04s-.03.11-.05.19c-.02.08-.05.17-.08.25-.03.09-.05.17-.07.24l-.84,2.33h-.43l-.84-2.33c-.02-.06-.04-.13-.06-.2-.02-.08-.04-.16-.07-.24-.02-.08-.04-.16-.06-.23h-.04c0,.08,0,.17,0,.28,0,.11,0,.22,0,.34,0,.11,0,.21,0,.3v2.09h-.48Z"/>
        <path class="cls-1" d="m107.96,100.41v-3.56h2.74v.43h-2.25v1.1h2.02v.43h-2.02v1.18h2.28v.43h-2.77Z"/>
        <path class="cls-1" d="m111.47,100.41v-3.56h.48l1.73,2.35s.04.05.07.09c.03.04.06.08.08.12.03.04.05.08.07.11h.02v-2.67h.48v3.56h-.45l-1.75-2.39s-.06-.09-.11-.16c-.05-.07-.09-.12-.12-.17h-.03v2.71h-.48Z"/>
        <path class="cls-1" d="m116.16,100.41v-3.13h-1.22v-.43h2.94v.43h-1.23v3.13h-.49Z"/>
      </g>
    </g>
  </g>
</svg>